<?xml version="1.0" encoding="UTF-8" standalone="no"?>
<svg
   width="64pt"
   height="64pt"
   viewBox="0 0 22.577778 22.577778"
   version="1.1"
   id="svg831"
   inkscape:version="1.1.2 (1:1.1+202202050950+0a00cf5339)"
   sodipodi:docname="27 - Rope.svg"
   inkscape:export-filename="/media/taufikramadhan/Data/Tr Design Studio/Project Design/TR Creative Design/Icon Design/Project Hiring/Icon Icons/018 - Gym And Fitness/5 - Send/2 - Solid/SVG/27 - Rope.png"
   inkscape:export-xdpi="576"
   inkscape:export-ydpi="576"
   xmlns:inkscape="http://www.inkscape.org/namespaces/inkscape"
   xmlns:sodipodi="http://sodipodi.sourceforge.net/DTD/sodipodi-0.dtd"
   xmlns="http://www.w3.org/2000/svg"
   xmlns:svg="http://www.w3.org/2000/svg"
   xmlns:rdf="http://www.w3.org/1999/02/22-rdf-syntax-ns#"
   xmlns:cc="http://creativecommons.org/ns#"
   xmlns:dc="http://purl.org/dc/elements/1.1/">
  <defs
     id="defs825">
    <pattern
       id="EMFhbasepattern"
       patternUnits="userSpaceOnUse"
       width="6"
       height="6"
       x="0"
       y="0" />
    <pattern
       id="EMFhbasepattern-9"
       patternUnits="userSpaceOnUse"
       width="6"
       height="6"
       x="0"
       y="0" />
    <pattern
       id="EMFhbasepattern-0"
       patternUnits="userSpaceOnUse"
       width="6"
       height="6"
       x="0"
       y="0" />
    <pattern
       id="EMFhbasepattern-7"
       patternUnits="userSpaceOnUse"
       width="6"
       height="6"
       x="0"
       y="0" />
    <pattern
       id="EMFhbasepattern-2"
       patternUnits="userSpaceOnUse"
       width="6"
       height="6"
       x="0"
       y="0" />
    <pattern
       id="EMFhbasepattern-98"
       patternUnits="userSpaceOnUse"
       width="6"
       height="6"
       x="0"
       y="0" />
    <pattern
       id="EMFhbasepattern-6"
       patternUnits="userSpaceOnUse"
       width="6"
       height="6"
       x="0"
       y="0" />
    <pattern
       id="EMFhbasepattern-01"
       patternUnits="userSpaceOnUse"
       width="6"
       height="6"
       x="0"
       y="0" />
    <pattern
       id="EMFhbasepattern-07"
       patternUnits="userSpaceOnUse"
       width="6"
       height="6"
       x="0"
       y="0" />
    <pattern
       id="EMFhbasepattern-8"
       patternUnits="userSpaceOnUse"
       width="6"
       height="6"
       x="0"
       y="0" />
    <pattern
       id="EMFhbasepattern-4"
       patternUnits="userSpaceOnUse"
       width="6"
       height="6"
       x="0"
       y="0" />
    <pattern
       id="EMFhbasepattern-40"
       patternUnits="userSpaceOnUse"
       width="6"
       height="6"
       x="0"
       y="0" />
    <pattern
       id="EMFhbasepattern-08"
       patternUnits="userSpaceOnUse"
       width="6"
       height="6"
       x="0"
       y="0" />
    <pattern
       id="EMFhbasepattern-04"
       patternUnits="userSpaceOnUse"
       width="6"
       height="6"
       x="0"
       y="0" />
    <pattern
       id="EMFhbasepattern-014"
       patternUnits="userSpaceOnUse"
       width="6"
       height="6"
       x="0"
       y="0" />
    <pattern
       id="EMFhbasepattern-27"
       patternUnits="userSpaceOnUse"
       width="6"
       height="6"
       x="0"
       y="0" />
    <pattern
       id="EMFhbasepattern-09"
       patternUnits="userSpaceOnUse"
       width="6"
       height="6"
       x="0"
       y="0" />
    <pattern
       id="EMFhbasepattern-5"
       patternUnits="userSpaceOnUse"
       width="6"
       height="6"
       x="0"
       y="0" />
    <pattern
       id="EMFhbasepattern-018"
       patternUnits="userSpaceOnUse"
       width="6"
       height="6"
       x="0"
       y="0" />
  </defs>
  <sodipodi:namedview
     inkscape:lockguides="true"
     id="base"
     pagecolor="#ffffff"
     bordercolor="#666666"
     borderopacity="1.0"
     inkscape:pageopacity="0.0"
     inkscape:pageshadow="2"
     inkscape:zoom="4.4249417"
     inkscape:cx="42.599431"
     inkscape:cy="53.786019"
     inkscape:document-units="pt"
     inkscape:current-layer="layer1"
     showgrid="false"
     units="pt"
     inkscape:window-width="1366"
     inkscape:window-height="705"
     inkscape:window-x="0"
     inkscape:window-y="31"
     inkscape:window-maximized="1"
     inkscape:pagecheckerboard="true"
     inkscape:showpageshadow="false"
     inkscape:object-paths="true"
     inkscape:snap-intersection-paths="true"
     inkscape:snap-smooth-nodes="true"
     inkscape:snap-midpoints="true"
     showguides="false"
     inkscape:snap-bbox="true"
     inkscape:bbox-nodes="true"
     inkscape:snap-nodes="false"
     inkscape:snap-global="true"
     inkscape:document-rotation="0">
    <inkscape:grid
       type="xygrid"
       id="grid1378" />
    <sodipodi:guide
       position="0.97013831,21.607643"
       orientation="78.000048,0"
       id="guide1380"
       inkscape:locked="true" />
    <sodipodi:guide
       position="0.97013831,0.97013129"
       orientation="0,78.000005"
       id="guide1382"
       inkscape:locked="true" />
    <sodipodi:guide
       position="21.607639,0.97013129"
       orientation="-78.000048,0"
       id="guide1384"
       inkscape:locked="true" />
    <sodipodi:guide
       position="21.607639,21.607643"
       orientation="0,-78.000005"
       id="guide1386"
       inkscape:locked="true" />
  </sodipodi:namedview>
  <metadata
     id="metadata828">
    <rdf:RDF>
      <cc:Work
         rdf:about="">
        <dc:format>image/svg+xml</dc:format>
        <dc:type
           rdf:resource="http://purl.org/dc/dcmitype/StillImage" />
      </cc:Work>
    </rdf:RDF>
  </metadata>
  <g
     inkscape:label="Icon"
     inkscape:groupmode="layer"
     id="layer1"
     transform="translate(0,-274.42223)">
    <path
       id="path219789"
       style="color:#000000;display:inline;fill:#000000;stroke:none;stroke-width:1;stroke-linecap:round;stroke-linejoin:round;stroke-miterlimit:10;-inkscape-stroke:none"
       d="m 19.338774,275.41804 c -0.885431,0 -1.491926,0.29051 -1.849667,0.66941 -0.246734,0.26132 -0.385308,0.54029 -0.418546,0.80719 0.472247,0.0964 1.523027,0.29247 2.268213,0.29247 0.745184,0 1.796617,-0.19603 2.268865,-0.29247 -0.03247,-0.26692 -0.169213,-0.5459 -0.415947,-0.80719 -0.357739,-0.37885 -0.967496,-0.66941 -1.852918,-0.66941 z m -2.175276,2.17657 c 0.202173,1.072 0.339757,2.86109 0.397751,4.23616 h 3.555703 c 0.05781,-1.37509 0.19491,-3.16418 0.397099,-4.23616 -0.544553,0.10733 -1.441488,0.25866 -2.175277,0.25866 -0.734749,0 -1.631711,-0.15133 -2.175276,-0.25866 z m -8.7284,0.42505 c -1.4463142,0.0107 -2.8186928,0.40047 -3.913157,1.1757 -1.3377549,0.94757 -2.2390145,2.48124 -2.317608,4.50523 h 2.0836378 c 0.07448,-1.17362 0.6024811,-2.11705 1.4447677,-2.73681 0.7071774,-0.52033 1.6778636,-0.74781 2.787499,-0.69802 0.035637,10e-4 0.072442,0.002 0.1104863,0.003 1.0800451,0.0512 3.1018642,0.42582 4.4629882,2.37155 0.31411,0.41713 0.542781,0.89065 0.656417,1.42982 0.08258,0.41972 0.128034,0.86947 0.128034,1.33624 -1e-6,1.2153 -0.305769,2.30965 -0.778602,3.07801 -0.472832,0.76835 -1.083866,1.1913 -1.719683,1.1913 -0.635819,0 -1.246852,-0.42295 -1.719684,-1.1913 -0.4728317,-0.76836 -0.7786006,-1.86271 -0.7786019,-3.07801 -1.4e-6,-1.91646 0.7919832,-3.26746 1.6670409,-4.04639 -0.9025236,-0.39861 -1.757399,-0.44951 -2.2188214,-0.44064 -0.9557823,1.15539 -1.5312088,2.65926 -1.5312072,4.48703 2e-6,1.81929 0.4878648,3.47118 1.2998363,4.68915 0.8119715,1.21796 1.9736553,2.01476 3.2814373,2.01476 1.30778,0 2.467517,-0.7968 3.279486,-2.01476 0.811972,-1.21797 1.301785,-2.86986 1.301786,-4.68915 10e-7,-1.15752 -0.199007,-2.24734 -0.55048,-3.20021 -8.65e-4,-9.9e-4 -0.0017,-0.001 -0.0027,-0.002 -0.87272,-2.28604 -3.104755,-3.79031 -5.7452764,-4.10489 -0.4120169,-0.0564 -0.8227273,-0.0829 -1.2276952,-0.0799 z m 2.749154,3.68113 -0.02535,0.0346 c -0.696463,0.92024 -1.117506,2.25887 -1.117859,3.70907 3.99e-4,1.49315 0.525777,2.66852 1.167253,3.5622 0.344975,-0.0626 1.134516,-0.35849 1.58775,-1.38561 -0.361397,-0.6964 -0.629417,-1.46266 -0.62977,-2.21363 3.99e-4,-0.83174 0.232127,-1.50931 0.581027,-2.07908 -0.451173,-0.74911 -1.000003,-1.26863 -1.563054,-1.6274 z m 6.738351,0.7955 c -0.375324,0 -0.686964,0.3123 -0.686964,0.68762 v 0.70776 c 0,0.37531 0.31164,0.68437 0.686964,0.68437 h 2.832344 c 0.375321,0 0.687613,-0.30906 0.687613,-0.68437 v -0.70776 c 0,-0.37532 -0.312292,-0.68762 -0.687613,-0.68762 z M 2.5026455,284.3661 c -0.5586097,0.0145 -1.0119225,0.47934 -1.0119225,1.04118 v 0.0644 h 3.4978592 v -0.0644 c 0,-0.57076 -0.4710499,-1.04118 -1.0418187,-1.04118 H 2.5292921 c -0.00892,0 -0.01778,-2.2e-4 -0.026647,0 z m 15.0884995,0.8761 v 0.0657 c 0,0.57077 0.469105,1.03988 1.039869,1.03988 h 1.416172 c 0.570764,0 1.039869,-0.46911 1.039868,-1.03988 v -0.0657 z m -15.7689638,0.89493 c -0.3753286,0 -0.6856636,0.30971 -0.6856636,0.68502 v 0.70776 c 0,0.37533 0.3103493,0.68762 0.6856636,0.68762 h 2.8323432 c 0.3753142,0 0.6876132,-0.31229 0.6876132,-0.68762 v -0.70776 c 0,-0.37531 -0.3122846,-0.68502 -0.6876132,-0.68502 z m 16.4669758,0.87349 c -0.111947,1.79794 -1.269391,3.07539 -3.039667,3.42702 -0.227855,0.30938 -1.201987,1.53767 -2.694559,2.13629 1.632802,0.25112 3.29583,0.078 4.654713,-0.55764 0.0017,-0.001 0.0035,-0.001 0.0051,-0.002 1.7842,-0.86287 3.063261,-2.57793 3.157302,-5.00308 z m -16.8257306,1.87241 c -0.057663,1.54868 -0.2000462,3.7936 -0.4029491,4.94457 0.5441182,-0.10679 1.4436077,-0.25735 2.1791754,-0.25735 0.7353836,0 1.6331407,0.15065 2.1765755,0.25735 -0.2026587,-1.15099 -0.3438694,-3.39593 -0.4009993,-4.94457 z m 1.7762263,5.35273 c -0.744772,0 -1.7964363,0.19496 -2.26951413,0.29117 0.0327798,0.26655 0.17070303,0.54545 0.41724743,0.80655 0.3577381,0.37885 0.9668435,0.67071 1.8522667,0.67071 0.8854307,0 1.491928,-0.29182 1.8496671,-0.67071 0.2465444,-0.26114 0.3844676,-0.54001 0.4172472,-0.80655 -0.4723906,-0.0962 -1.5221425,-0.29117 -2.2669143,-0.29117 z" />
  </g>
</svg>
